<mxfile host="65bd71144e">
    <diagram id="HIP3nbAZw_EuaXWnEj3U" name="Page-1">
        <mxGraphModel dx="1086" dy="743" grid="1" gridSize="10" guides="1" tooltips="1" connect="1" arrows="1" fold="1" page="1" pageScale="1" pageWidth="850" pageHeight="1100" background="#FFFFFF" math="0" shadow="0">
            <root>
                <mxCell id="0"/>
                <mxCell id="1" parent="0"/>
                <mxCell id="7" value="http://ics2o.mths.ca" style="swimlane;whiteSpace=wrap;html=1;fillColor=#f5f5f5;fontColor=#333333;strokeColor=#666666;" parent="1" vertex="1">
                    <mxGeometry x="40" y="40" width="760" height="480" as="geometry"/>
                </mxCell>
                <mxCell id="9" value="" style="rounded=1;whiteSpace=wrap;html=1;fillColor=#f5f5f5;fontColor=#333333;strokeColor=#666666;" parent="7" vertex="1">
                    <mxGeometry x="89" y="190" width="120" height="18" as="geometry"/>
                </mxCell>
                <mxCell id="14" value="" style="rounded=1;whiteSpace=wrap;html=1;fillColor=#f5f5f5;fontColor=#333333;strokeColor=#666666;" parent="7" vertex="1">
                    <mxGeometry x="89" y="231" width="120" height="18" as="geometry"/>
                </mxCell>
                <mxCell id="15" value="Width:" style="text;html=1;align=center;verticalAlign=middle;resizable=0;points=[];autosize=1;strokeColor=none;fillColor=none;fontColor=#000000;" parent="7" vertex="1">
                    <mxGeometry x="10" y="225" width="60" height="30" as="geometry"/>
                </mxCell>
                <mxCell id="16" value="Height :" style="text;html=1;align=center;verticalAlign=middle;resizable=0;points=[];autosize=1;strokeColor=none;fillColor=none;fontColor=#000000;" parent="7" vertex="1">
                    <mxGeometry x="5" y="266" width="70" height="30" as="geometry"/>
                </mxCell>
                <mxCell id="10" value="Length:" style="text;html=1;align=center;verticalAlign=middle;resizable=0;points=[];autosize=1;strokeColor=none;fillColor=none;fontColor=#000000;" parent="7" vertex="1">
                    <mxGeometry x="10" y="184" width="60" height="30" as="geometry"/>
                </mxCell>
                <mxCell id="17" value="" style="rounded=1;whiteSpace=wrap;html=1;fillColor=#f5f5f5;fontColor=#333333;strokeColor=#666666;" parent="7" vertex="1">
                    <mxGeometry x="89" y="272" width="120" height="18" as="geometry"/>
                </mxCell>
                <mxCell id="18" value="Calculate Area" style="rounded=1;whiteSpace=wrap;html=1;fillColor=#f5f5f5;fontColor=#000000;strokeColor=#666666;" parent="7" vertex="1">
                    <mxGeometry x="30" y="320" width="130" height="30" as="geometry"/>
                </mxCell>
                <mxCell id="19" value="&lt;font style=&quot;font-size: 16px;&quot;&gt;Formula&lt;br&gt;&lt;br&gt;A = (L x W x H) / 3&lt;br&gt;&lt;/font&gt;" style="text;html=1;align=left;verticalAlign=middle;resizable=0;points=[];autosize=1;strokeColor=none;fillColor=none;strokeWidth=1;fontColor=#000000;labelBackgroundColor=none;" parent="7" vertex="1">
                    <mxGeometry x="39" y="68" width="150" height="70" as="geometry"/>
                </mxCell>
                <mxCell id="21" value="&lt;font style=&quot;font-size: 20px;&quot;&gt;Volume of Pyramid, with JS&lt;/font&gt;" style="text;html=1;align=center;verticalAlign=middle;resizable=0;points=[];autosize=1;strokeColor=none;fillColor=none;fontSize=17;fontColor=#000000;labelBackgroundColor=none;" parent="7" vertex="1">
                    <mxGeometry x="14" y="23" width="270" height="40" as="geometry"/>
                </mxCell>
                <mxCell id="22" value="&lt;font style=&quot;font-size: 18px;&quot;&gt;Please enter integers for dimensions&lt;/font&gt;" style="text;html=1;align=center;verticalAlign=middle;resizable=0;points=[];autosize=1;strokeColor=none;fillColor=none;fontSize=20;fontColor=#000000;" parent="7" vertex="1">
                    <mxGeometry x="34" y="136" width="320" height="40" as="geometry"/>
                </mxCell>
                <mxCell id="23" value="" style="shape=image;verticalLabelPosition=bottom;labelBackgroundColor=default;verticalAlign=top;aspect=fixed;imageAspect=0;image=data:image/png,iVBORw0KGgoAAAANSUhEUgAAAMgAAAC0CAIAAABe2vRzAAAcFklEQVR4nO2deXAb133HH4AFAZIASFwkAd4AKPmQZVqidcSUdVgSLVKUBJu2lLhOOmmaiXM4jsdp43QmTSdT18mkbiaOx9PxpEmaNKEjxaAIg6Lui5Yl66AkWxYl3gAJnsCCuMFdAP1jIRjCuQB2gQWwnz804GL37SP1nfd7+/v+3luG3+8HNDREw8x2B2jyE1pYNKRAC4uGFGhh0ZACLSwaUqCFRUMKtLBoSIEWFg0p0MKiIQVaWDSkQAuLhhRoYdGQAi0sGlKghUVDCrSwcDE5NfXTf//5yNhEtjuSM9DCwsVh7RHPMvKXvx5CUW+2+5Ib0MJKzKkz5/x+/yMPP1RSXPz+IU22u5Mb0MJKwJTRqDt64snW1mq5nMFkmC3w6XMD2e5UDkALKwE9vbrt27bU11bLZbK5uYU97buOnTx9Z3gk2/2iOrSw4nHs5Oni4uIVKpWAXwoAUCkbYYtl/7Pq7kMau92e7d5RGlpYMZnUG06ePrdj29biYi4EQQCAJqViZHSsefWqx9c81k1PtuJCCysmGq1uX2c7kwUJ+DzsiEqpGB4dAwC0t20HgNF39ERWO0hpaGFF58ixE8KysrWPNSMIwistwQ7WVMudLpcZhgEAB7r2Xbk2eP3mZ1ntJnWhhRWFsfGJ8x9d3Lenw2qz83mloV81KRUjo+MAAB6Pt79L/f4hzcLiYpa6SWloYUVBo+3b19leJhDY7I5gHMQIRkMAwMom1c7tW+nJVlRoYYXz4ZGjlVLJupY1doeTzWYXFbFDv21SNo7cExYAYOuTraJy4d8Of5jxblIdWlj3MTwyeunytX17OgAAVpsdyzKEIpVIWCzWzOxc8Mj+LvXo2PjFT65ktKOUhxbWfWi0feo97bzSUhRFXS43n8eLPAdLOgR/hCDWgS519yGN3jCVwZ5SHVpYX3D4wyO11fI1zY8CAKw2B5/HYzCinKZSKoZHx0OP1NXWYNpCvbRFHYAWVoChO8ODNz7FgiAAwGZzRMZBjLARC2PDuhalovH9g/REPgAtLAAA8Pl8Gq1Ovae9mMsFADidLgaTweVyop4sEPCFwrJJvSHs+LN7d9MWdRBaWAAA0KPtUyoaHn1kFfajNSLLEEZo0iGUA13qYydoixoAWlgAgM8+H7p1+86+zkAQ9Pp8NpuDHyMOYkSNhgAAqUSCZU3tdgcpfc0dCl1YCIL2aHXqPe1F7EC+ClMVixnvL4PN330+X+RXzatXtdAWNS0sjVb34AMrVj30YPCI1WYX8OINVwAALodTV1szcv+zYZD2tu0A+Avcoi5oYd349Nbo2Jj6XhAEALjdHp/PX1JSnPDaJmXjyFiUaIixv0t95drgjQK2qAtXWG63R6PV7evsYIZEPas9ZpYhjKYY83cMPo+3v0vdXcAWdeEKS6PVNa9e9eDKFcEjfj+wRbNxoqJSKgyGabfbHeuEAreoC1RY167fNExN7dvdHnrQZrcHi0UTwmAwYiUdghSyRV2IwnI4nFgQDDtutSVIX4URrM2KQ8Fa1IUoLI1Wt75lzQqVMvTg8jISWiyKB5UqwYgFCtiiLjhhXb46ODc/v3tXW9jxyGLRhNTX1liWlpas1vinFaZFXVjCslptmt4oQRAAEFksiodYKfgwCtCiLixhabS6TU9sUDY2hB2PWiyKh4Tz9yCFZlEXkLAufnIFtlh27dwe+VXUYlE84Jm/Bykoi7pQhGWGLZpenTpaEIxTLJqQqsoKr9c7v4ArC1pQFnWhCKtHq3tq65P1dbWRX8UpFsUDzmkWRuFY1AUhrIGPLzmczp1PbY36bZxiUTzgn2ZhFIhFnf/CWlg09cQIgiBRsSgekppmYezvUl++Nnjj03y2qPNfWJpe3a627TXV8qjfJiwWTYhQWF5aWjI1bcR/CZ/HO9Cl7j6oWVg0pXNrKpPnwjo7cMHrRZ/a8mTUb/EUi+JBpWxMKhqCArCo81lYs3PzPTHSoRh4ikXxkNT8PcjWJ1uF5WUf5KlFnc/C0vTq9na2y6oqY52Ap1gUD8nO34Mc6FKP5KlFnbfCOnX2PIvF3LLpiVgn4C8WTUhpSYmssnJ0LLkpPAAAgqB8tajzU1jTxhld/7E4QRAkUyyKh8jl0TgJWtTe/LKo81NYWJK9QiqJdUJSxaJ4SG2ahYFZ1Hk2kc9DYR0/daa4mNv6pQ1xzkmqWBQPKmXj6Ng4giCpXf7s3t1mc15Z1PkmLL1h6vipM/GDIEi+WDQhEAThqfuLQ55Z1PkmLCwIikXCOOekUCyKh3SiIQBAKs0rizqvhNV/7GRZmWDj+sfjn5ZCsSgeUp6/B8knizp/hDU2MXn2owuxPMFQUisWTYiioX5+YSHN8SZvLOr8ERbmNJeVCeKflnKxKB7ir2LFSX5Y1HkirA+PHJNKJeta1iQ8M+ViUTykOc3CCFjUh3Lbos4HYQ2Pjl26fAVPEEynWBQPKqUizoYO+FnZpNq5Lbct6nwQFrbwhodjPp5msWhCquUyl8tjMsPpN7V1c25b1DkvLGxH2rWPPYrnZGt6xaJ4CNsIPh1y2qLObWEN3R0evHEzYToUw+l0MdMrFsVDmmnSUL6wqKemCWkwk+SwsPx+PxYEi4u5eM5Pv1gUD00KAubvQepqa/Z3qd8/+EHOWdQ5LCxNr07Z2NC8ehWek4kqFk2IRCJms9kzs7NENbhxXYtC0ZBzE/lcFdatz4du3R7CGQQBccWieEg/BR/Gs3s7c86izklhoSiq0erUnR3485xEFYvigZBsVhiYRX03dyzqnBSWplf34MoVqx5+MPGpAACCikVFwjKcZ6awtiIhmEXdnTsWde4J6+ant4ZHx/AHQUBQlkEsKsd5poDPFwuFE5P6NO8YRm5Z1DkmLLfHgwVBFgtvz/1+YLOTaONEJeXlFfHJIYs6x4TV06t79JFVDz6wIvGp9yC8WBQPKSyPxkmuWNS5JKxr129OGqb2dbYnPjWEtIpFfcaB7nd+8qN/eeU3A0kZwiqlYmR0LOqrK9IkVyzqnBGWw+ns0cbcgiEW6RaLMuWtz3euFQJxbZ04mes4nKL6+loyoiHIEYs6Z4Sl6dU9vnbNiiZl4lNDIKBY1DU/tQRVN0bf+iEOZCQdglDfos4NYV2+Ojg7N9/ZHr4jbUIIKBY1GuZ88sbapKdoJM3fg1Dcos4BYVmtthSCICCoWHRu0mgtkwumj//Pr9784Y/f/NUJPc4VXk1KxdT0jMsV89UVaUJxizoHhKXR6p7YuEGpCN+RNiFEFIu6p6bmgW9+1tf84ivfOfAAMnH5xjTuGXkTCZnSUO5Z1FRcRU11YV385AoMW9rbouxIGx9iikV9xvFptKH1mY7VUjbgC/hsUMrn4/6bkTrNwti4rkWhqKfgRJ7SwoJhi0arC74APCmIKRaF9RM2YU09tkoRnjLYBMk8HqrIFxagqkVNaWFptLqnNj/ZEG1H2oQQYuMgBuMcWx54InSNDs9CDY11+C+vq61ZstksS0tpdiMh+wMW9SjZN8IPdYX10ceXHA7nzu3Rd6SND1HFotOTRkQqbygCAABkfGzcJ2+sT+7xkLwUfCgVAYv6A+pY1BQV1uKiKeUgCAgrFoXHDbCgOhD7zFMLLrZQzE+uCbKTDkGoZlFTVFgarW7Xzu21MXakjQ9hxaLLxvE5qKY+0AeBXCoGd3R/PnJxKokMAoFrKxKCWdRHjlHDovZTj7PnP3rnv3+b8uWwxTozt0Bgf9Lk3974xdzcfGbuZbXZfvrGL67f/DQzt4sD5Uas2bl5jVan3pOc0xxKJotF8ZCxaAioZFFTTlg9Wt3e3e2yqqrULne7PX6CdhYliszM34NQxKKmlrBOnT3PYMTbkTYhVtKW4pjMltQuVCkVw0Ssu8cPFSxqCglr2jjz4ZFj6QRBUotFzXCK6ShheRm/tNSQWUcv6xY1hYTVo9Wp93RUSKUpt5CVYlE8ELg8GidZt6ipIqzjp85wONxNcXekTQjhO4sSBbHLo3ESsKiztNE3JYSlN0wdP3kmnSAISNtZlBBUmZ2/B9m4rkXRkB2LmhLCwpLsYpEonUZI2lmUEEpKimWyqpHkX12RPs/uy45FnX1h9R8/WcYXfCnRjrQJIWlnUaLIZAo+jP1d6qMZt6izLKzxicmz5y/sSy8IApJ3FiWETKZJw6iQSrCJvN2ROYs6y8LSaHXqPR3lZXhXr8eC1J1FCaFJqRgfn1xeXs7K3ZtXr2pZ82j3wcxNtrIpLF3/MakE14608SF7Z1FCYLFYhO9CkxTtbTv8GbSosyas4dGxjy9dSXb1aVSsNgefT+LOokSRgUrl+BzoUn9yZfDGp7cycK+sCatH26fe007IMGO1OSjlOsdClb35OwafxzvwnLr70AcZsKizI6xe3ZFquWztY83pN5WZnUUJobGhfsFkstntWewDZlG/T35mKwvCGro7fHXwppqIIAgytbMoUWQ9GgIAtm5uLSffos60sPx+PxYEi4sJqGzJ2M6iRJHFpEMoAYv6MokWdaaFpdHqGhvqmlc/QkhrmdxZlBAyXJsVi4BFfVBDXs1FRv9Lbt0e+uzW7RQWy8eCasWiCZHLqjwej8lkznZHAhY1ee+izpywUBTt0fap93QUFRUR0iAFi0XxQJFoCEi2qDMnLI1Wt3KF6pGHHyKqQfKKRUmFCvP3IORZ1BkS1s3Pbg0PjxIYBLOysyghZDf/HglJFnUmhOXxeHq0ffv2dLBYLKLapGyxaEIkYhGHU2ScIezVFWlCkkWdCWFptH2rVz300AMrCWyTssWieCBjI/h0IMOiJl1YgzduTur1SW3LnhAqF4vigVLTLAzCLWpyheVwOjXaPgKnVgAAj2d5dm7B6/Xpp2aMs/MLi2bLktXucHo8y2TsUkwG1HkwDIVYi5rcOUqPtu/xNc0rmlRENWiGLWbYKhEL+fxSFEERFEUQFEFQp8uNICiKogAw2GyIDUEQG2JDEBtiYR+YVEqi8nk8iVg8PqFvbEhiUySywVZR//7/uuWyKqkkqU2io0CisK5cG5yZnX1h/3cJac3pci+aYDYbqq+TsyEIAMDiFHE44Skxr9eHoCimuWUEcTpdCIoiKMpkMCAICmgu5AOTmZ1qGywaUkpYAICVK1Q7tm1+/5Dmu9/6RppNkSUsq82m0fZ9/cWvpN+U3+9fNME2h1MqEiZMXLFYTBarCEQRnBcb3lAUXV5GHE4XiqIIgjKZjC+GNzYEQYEPDJLLu1TKxrPnL+x4agupd0mBbZs3GWdmPzj84TN7d6fTDlnC6tH2PbFhnVLRmGY7dodz0QSXFHMbauXphDMWi8Visbic8Ooa1OsNhlSPZ9nucCIIiqJeJpN5L6Sy2BCEjZF+v58owTUpFb/9w5+8Xi+BKRiiONClfuvtdy9evrrh8bUpN0KKsC5evmIym7/6lf3pNOL1ehdMsMezLJWISknzbSAWC2KxuCBCcKgXQVFsVHN7lu12JwBgZFwPsVjBUe1eSGVBUNIjXFFRUWN9/fDo2AMrmgj7ZQgCs6jfevvdallVbU11ao0w/H4/sd2CLZaf/+evv/WNv2+oT30CsWS1L5rgMgFPIhYS2Ld0GB6dbFLWoyiKoF4spCIIGhQfBLFCnhi+iK1xGuw/dhL1ort3Jf1WhMzw8SdXBi5cfPV7L6U2phI/YvVo+7Zubk1ZVcvLyKIZ9nl91bIKCtaFQhAEQVBxRMeCTwwIirrcbsQeEB8EQWw2674nBnYgsKqUCu2Ro9n4JXCxcV2L0TjTfUjzwv6uFC4nWFgfXbxks9vbtm9L7XLYYl00wRKxUFguILZjZIMNVJEBO3RUc7rcaOABwstmQ9zikmnjzPTMHJ9XGoytWeh6bJ7d1/n2u++dOTew5cnWZK8l8jdZNJl6evte/vY3U7jW7fYsmGAWi1lfK6fyutNkYbOjBEQ/ANjw1thQPzExqVQqsOENE1xkSIWgrE3w93ep33r7XblMluzrsYgUlkbb17ZjWwrTvUUTvGS1S8TCMkGu2n9JwbgnuAdXNs3Ozz2xcR123O/33wupXgRFHfeScD6vN2oSLgOCC1rUr778Eq80iVoSwoR17qOPl5eXt2/dnNRVDqdr0QRzOUUNdXIKPniTTZNS8ee/Hgr+yGAwitjsInb4gI0JLvjE4HA4sQcIn893b1RjhSbhiP1LNq9eZZyZ6T6k+cbX/g7/VcQIa25+vqdX99orSSTZfT7fogl2utwSsTB37eQ0qa2pttkcFstSeXm8TQZiCc7n92MhFfvX7XFiH3w+f0RIZbGh1AXX3rbjvd//8cixE7t24n2pETHC0vT2dXY8LZfh3ZHWZnMsmGA+r6S+Vk52jpviYCU0j699LIVrmQxGUVGUrVB8Ph+Wh8MGObfbg03h/H5/RBIOgiAIz5vbD3Sp3/r1u3KZ7NFHHsbTNwKEdfrcAIMBtuJ7cEBQdNEEIwhaVSkpKeamf/dcBzMNUxNWLJhMZlERM6rgvkiLIF5McAiCAuCP6muFWh1Bi7paViXBYVGnK6zpmRltX/8/v/p9PCdblmyLJlgkFMgqU99oNM9QKRUnz5zLzL2YTCanqIgTsZjF5/OFp0UQFAktFYEgNptVUy3ftrn1L4c++N63/jHhvdIVVk9vn7qzo7IigVA8nuVFEwwAqK2uiixJKGQqK6QMBmNufiHh35A8mEwmJ0apCIqG1CY53VJJxdmBC8aZ2YTTnrSEdeLUWQ6naNMTG+OfFiyiKi9L8hVHhQFW95dFYcUCKxUJCu7U2fNaXf/u9jY8k+nUhaWfmjp68tSP4gbByCIqmkialI2ffT7UunF9tjsSk4lJfW9ffzG3+Eevfb+yogLPJan/Z2NBUCyOviNtoIjK7pSKExdRFTgqpUKj7ct2L2Ly4ZFjFy5e6mx/emMy+8SmKKyjx0/x+bwvbVgX9dsviqjq0iqiKhDKy8oEfL7eMFVXW5PtvtzH50N3enX9tTXVr7/2A36Sa6JSEdb4hP70+YGoQTAzRVQZZmZ27qDm8Nj4pKKx/jn1XllVJeG3wJIO1BGW2+3u7eu/Ozza2d726COrUmghleGkR6tTd3ZEJouXrPYJvRFisepr5XmjKgAApioAwNj45EHNYTJuQanl0VeuXX/jl79is9mvv/ZKaqoCKYxYuv7jYrFo/f1Fq1gRlZeqRVRpgqkq8jOBNCkb//jn98loOSnMZri3r99shl/88vNNSkU6TSU3Yo2Mjl+49In6/lc1wxbrpMFYzOXWVlfln6oAAIrG+qifCaS4uLi6WpbdxYbnBi688cv/klVVvfryt9NUFUh2xMKCYHBH2nwtogrjOfXe0DkWSXfBplnp/4+mwNS0sVfXz2QyfvDdl6rlMkLaTKLmvVfXb7Pbg4WqhVZERTZ3hkeOnjj18kuplEmmQ//xk6fOnu9sfzrNV6+FgTcU3rk7cnXwOhYEHU7XpMHo9Xob6uS0qohCpVRMTBo8GXx1hcvlBgB4fb7XX3uFWFUBnMLy+/0arW5fZweXw5lfMC0smsWi8soKSQGW5pEHi8kk8EVO1uGBP/7mzR/+6zs6feDIhPaXr/z8yJQPAACfe+8/ftZ9CxRz3R5PR9sOYXk5ITcNBZewerR9jfV1KoViwmBkMBj1tfKCLc0jFZVSMTxCjLAETa0vfrm12jM/vYgCAACwTRlgdnVdJRO4PctexG2a1C8g3sgVvESRWFif375z87NbGzesh5esVRUSqURU4KV55EHw9kYOmw0Iq+UQAACg+vE5IK+RsgHgcipbtjSLS4tL2SQGnARPhSjq/dth7cb163mlJSIh8QMmTSgN9XUmM2yz2ZP1T6JiGtebSutXYJbxrN7gEa5oCPjHfAGPXyEjdYVdAmHpDVPlZeWzs7P9xxdFwnKRUCgSCkWicpGQKguU8wyshGZN8+q0W3JPjBvZ9RtqmMDtdi8bjPNs+VaRGwAuAMA6DVc9sJXU/FACYTXU133l+WfMMGyGLWYYHh4dwz5bLBaRUBgmNZFQKKTQqLZw8a8f9F3TW+U7Xn95C/H2Hjlg83cChOUzDhtQ0Xo5x+djcqGRCSMQb1IIuAAAgBovjQo3PE9uFVOC1plMhlgsiqyN8fl8QbWZzZa7w6PYZ8uSVSQsF4mEX8hOJBQJy8l47kiEdMPznaapdy5V1+WKqgAAKqXi/IWLRLQEMRjAZbN5mcLpwTODCwA4YJMLVALjgPbMcuvzDSRXx6XYPJPJlIjFEnF4Ub3X6zPDMHxPc3eGRzD9Wa3WMKlhI1z8ZU/p4lqYXoRqtshJvAXRyGVVCIIsmkyRf9vkYNZteerhO7o//PiufP2u5w98rVbQrf3dGz8TVK5s3fNMRx3pRZfE7zYTFa/XGxjhzAHNwbDFDMNWmz3qCJf+y3wBAGBU+5P39Jte/c4OXDWPVOFP3QeVioaN61J8+7rb7eZyuQAABEWzWLWboRuzWCypRCKVSMKOoygmuIDObt+5i8VWu8MemL3dL7uysiQeZUx6vbVU3hB+T6rTpFTcHRlNQVgOh7O3r79MINi2uZXL5Wa3FjzLdegQxKqQSiqkkYJDQ0e4W7eHMOU5HE5htBGuTBApOHTCMM+uba3JtQpWlbJRd/R4slddunxV29e/rmXtrrbtVEgzUnSBAwRBFVJphTR84QqCoKEj3K3bQ5jynC6nSCh8esdTwecpv3d63IBWrpfnXMGhWCTicjjTxhmchQYLi4u9uqM2u/3rX31B0dhAdvdwQlFhxYLNhiorpJErpRAEMcMwNrfAYFgMEzZ+TX34mQ6H0+vzCviUXoiGpeDxCOv0uQGtrr/96R3JbsdCNjkmrFiw2eywZUmIQT/HlG+t9vt8/tAFHbduD2n7jro97vszcIGnVEJS3umjUiquDl7fvOmJOOdM6g29ff0cDuefXn25qpJyjyd5IqxIpieNSEVLTQmDCe6bcqxrWbOuZc3y8nLoHM4wNY09qy57loPJXpGwXHhvDhesbcwMTUpF/PeB6/qPDVy41NneFmuhVNbJV2HZpqZhUMqL9QxZVFRUVVlZVRmeOvV4MMHBZtgCw7DeMI39uIwgUUc4Hjnvd+XxSqVS8djEpKIhvBL69tDd3r7+arns9ddeEQioG9DzVVjFlbXS4o9PvPOnhZ0du1bjNjY5nCJZVWXkAi+Px4PlQTDNTeoN2AiHImjoCCcSCoUioUhYntTmd1HBplmhwnJ7PFpd/9Dd4c72p5tXp7h4JmNkKEGar7jdnuAIZ4ZhOKA8GPV6o45wpbjr2D4funP63MB3vvkP2I9XB6/36o42r364s/1pqu2BG5Uc6CKV4XI5cllV5CYZLrcbDkzgYDNsGZ+YxJTn8/pCHK1AHk4oLC8tCRecSql473f/i6Jeq82m7etfXDS9cKBrhSq5HWazCD1iZRSXyx06wpnNFhiGzTDs9/uFESPc3w5rq2WyS1eubt+yuW1HijucZwtaWJTA6XKFjnDYv3Pz85UV0i8/92xNdS756Bi0sGhIIdeMNJocgRYWDSnQwqIhBVpYNKRAC4uGFGhh0ZACLSwaUqCFRUMKtLBoSIEWFg0p0MKiIQVaWDSkQAuLhhRoYdGQAi0sGlKghUVDCv8Plr8LtGPxCHAAAAAASUVORK5CYII=;" vertex="1" parent="7">
                    <mxGeometry x="490" y="36" width="237.78" height="214" as="geometry"/>
                </mxCell>
            </root>
        </mxGraphModel>
    </diagram>
</mxfile>